<?xml version="1.0" encoding="UTF-8"?>
<svg width="287px" height="64px" viewBox="0 0 287 64" version="1.1" xmlns="http://www.w3.org/2000/svg" xmlns:xlink="http://www.w3.org/1999/xlink">
    <!-- Generator: Sketch 52.2 (67145) - http://www.bohemiancoding.com/sketch -->
    <title>一级导航栏</title>
    <desc>Created with Sketch.</desc>
    <defs>
        <radialGradient cx="50%" cy="50%" fx="50%" fy="50%" r="74.7087247%" id="radialGradient-1">
            <stop stop-color="#00B4ED" offset="0%"></stop>
            <stop stop-color="#02A1D4" offset="37.2606575%"></stop>
            <stop stop-color="#112029" offset="100%"></stop>
        </radialGradient>
    </defs>
    <g id="Page-1" stroke="none" stroke-width="1" fill="none" fill-rule="evenodd">
        <g id="部门情况" transform="translate(-3.000000, -3.000000)">
            <g id="一级导航栏" transform="translate(3.000000, 3.000000)">
                <g id="标题">
                    <g id="分组-16" transform="translate(80.000000, 18.000000)" fill="#FFFFFF">
                        <g id="分组-2">
                            <g id="分组-19">
                                <path d="M0.68,28.1112555 L13.7993431,21.3448321 L13.7993431,18.4127153 L20.3778102,18.4127153 L20.3778102,21.0816934 L23.9865693,21.0816934 L27.5953285,23.6754891 L27.5953285,19.1645401 C27.5953285,18.8387478 27.4825559,18.5568163 27.2570073,18.3187372 C27.0314587,18.0806582 26.7557924,17.9616204 26.43,17.9616204 L7.33364964,17.9616204 L7.33364964,23.7130803 L2.10846715,23.7130803 L2.10846715,14.616 L28.6854745,14.616 C29.2618764,14.616 29.8006788,14.7225075 30.3018978,14.9355255 C30.8031169,15.1485436 31.241677,15.4430054 31.6175912,15.8189197 C31.9935055,16.194834 32.2879673,16.6333941 32.5009854,17.1346131 C32.7140035,17.6358322 32.8205109,18.1746346 32.8205109,18.7510365 L32.8205109,23.7130803 L27.6329197,23.7130803 L33.7978832,28.1112555 L25.7909489,28.1112555 L19.7011679,23.3747591 L10.6792701,28.1112555 L0.68,28.1112555 Z M4.06321168,7.13534307 L9.28839416,7.13534307 L6.80737226,13.525854 L1.58218978,13.525854 L4.06321168,7.13534307 Z M9.28839416,5.78205839 L4.06321168,5.78205839 L1.65737226,1.15833577 L6.8449635,1.15833577 L9.28839416,5.78205839 Z M33.760292,2.17329927 L31.6551825,7.96235036 L26.7307299,7.96235036 L27.7081022,5.63169343 L10.3033577,5.63169343 L12.4084672,1.08315328 L17.9719708,1.08315328 L17.5208759,2.17329927 L33.760292,2.17329927 Z M24.249708,8.03753285 L22.2949635,9.42840876 L26.580365,9.42840876 L33.2716058,13.525854 L25.9789051,13.525854 L21.2048175,10.1802336 L16.4307299,13.525854 L9.66430657,13.525854 L17.5584672,8.03753285 L17.5584672,6.49629197 L24.249708,6.49629197 L24.249708,8.03753285 Z M40.5267153,28.186438 L35.3391241,28.186438 L37.1435036,24.0514015 L37.1435036,11.7966569 L42.6318248,11.7966569 L39.2486131,8.15030657 L46.1278102,8.15030657 L49.5110219,11.7966569 L55.9767153,11.7966569 L59.359927,8.15030657 L66.2391241,8.15030657 L62.8559124,11.7966569 L68.3442336,11.7966569 L68.3442336,15.5181898 L42.3686861,15.5181898 L42.3686861,24.0514015 L40.5267153,28.186438 Z M68.3442336,7.24811679 L37.1435036,7.24811679 L37.1435036,3.52658394 L50.2628467,3.52658394 L49.1727007,1.04556204 L54.360292,1.04556204 L55.4880292,3.52658394 L68.3442336,3.52658394 L68.3442336,7.24811679 Z M98.9435036,8.22548905 C99.4948446,8.22548905 100.014852,8.3319965 100.50354,8.5450146 C100.992229,8.7580327 101.411993,9.04622933 101.762847,9.40961314 C102.1137,9.77299695 102.395632,10.1990268 102.60865,10.6877153 C102.821668,11.1764039 102.928175,11.6964109 102.928175,12.2477518 L102.928175,12.9243942 L100.296788,12.9243942 L100.296788,16.6083358 C100.296788,17.4102862 100.008592,18.0994521 99.4321898,18.675854 C98.8557879,19.2522559 98.166622,19.5404526 97.3646715,19.5404526 L77.93,19.5404526 L77.93,20.856146 L100.296788,20.856146 L100.296788,25.2543212 C100.296788,25.6552964 100.221607,26.0312051 100.071241,26.3820584 C99.9208752,26.7329117 99.7141254,27.0399038 99.4509854,27.3030438 C99.1878454,27.5661838 98.8745882,27.7729336 98.5112044,27.9232993 C98.1478206,28.073665 97.7656468,28.1488467 97.3646715,28.1488467 L72.8175912,28.1488467 L72.8175912,12.9243942 L69.9230657,12.9243942 L69.9230657,8.22548905 L83.3055474,8.22548905 L82.7416788,7.21052555 L88.4179562,7.21052555 L88.9818248,8.22548905 L98.9435036,8.22548905 Z M77.93,23.6754891 L77.93,25.4046861 L94.5829197,25.4046861 C94.9838949,25.4046861 95.1843796,25.2042015 95.1843796,24.8032263 L95.1843796,23.6754891 L77.93,23.6754891 Z M75.0730657,10.7441022 L75.0730657,12.2101606 L97.7781752,12.2101606 L97.7781752,11.7214745 C97.7781752,11.445804 97.684198,11.2139936 97.4962409,11.0260365 C97.3082837,10.8380794 97.0764734,10.7441022 96.8008029,10.7441022 L75.0730657,10.7441022 Z M95.1843796,14.9919124 L77.93,14.9919124 L77.93,16.7587007 L94.5829197,16.7587007 C94.9838949,16.7587007 95.1843796,16.5582161 95.1843796,16.1572409 L95.1843796,14.9919124 Z M85.6362044,4.69191241 L82.140219,4.69191241 L83.1175912,6.49629197 L78.7570073,6.49629197 L77.7420438,4.69191241 L75.9376642,4.69191241 L75.1106569,6.49629197 L69.9230657,6.49629197 L72.4792701,1.08315328 L77.6292701,1.08315328 L77.1405839,2.13570803 L85.6362044,2.13570803 L85.6362044,4.69191241 Z M94.3949635,1.08315328 L93.8686861,2.13570803 L102.364307,2.13570803 L102.364307,4.69191241 L98.8683212,4.69191241 L99.8832847,6.49629197 L95.4851095,6.49629197 L94.470146,4.69191241 L92.6657664,4.69191241 L91.8387591,6.49629197 L86.6511679,6.49629197 L89.2073723,1.08315328 L94.3949635,1.08315328 Z M137.436934,28.2240292 L117.851898,28.2240292 L117.851898,25.1415474 L125.031825,25.1415474 L125.031825,21.6831533 L118.115036,21.6831533 L118.115036,18.5254891 L125.031825,18.5254891 L125.031825,16.0820584 L117.964672,16.0820584 L117.964672,0.970379562 L137.324161,0.970379562 L137.324161,11.9470219 C137.324161,12.5234238 137.217653,13.0622262 137.004635,13.5634453 C136.791617,14.0646643 136.497155,14.5032244 136.121241,14.8791387 C135.745327,15.255053 135.306766,15.5495147 134.805547,15.7625328 C134.304328,15.9755509 133.765526,16.0820584 133.189124,16.0820584 L130.257007,16.0820584 L130.257007,18.5254891 L137.136204,18.5254891 L137.136204,21.6831533 L130.257007,21.6831533 L130.257007,25.1415474 L137.436934,25.1415474 L137.436934,28.2240292 Z M132.512482,9.99227737 L130.257007,9.99227737 L130.257007,12.9995766 L131.347153,12.9995766 C131.672946,12.9995766 131.948612,12.886804 132.174161,12.6612555 C132.399709,12.4357069 132.512482,12.1475103 132.512482,11.7966569 L132.512482,9.99227737 Z M132.512482,4.05286131 L130.257007,4.05286131 L130.257007,6.90979562 L132.512482,6.90979562 L132.512482,4.05286131 Z M122.738759,4.05286131 L122.738759,6.90979562 L125.031825,6.90979562 L125.031825,4.05286131 L122.738759,4.05286131 Z M125.031825,12.9995766 L125.031825,9.99227737 L122.738759,9.99227737 L122.738759,12.9995766 L125.031825,12.9995766 Z M104.544599,1.04556204 L116.611387,1.04556204 L116.611387,4.76709489 L113.190584,4.76709489 L113.190584,11.6838832 L116.273066,11.6838832 L116.273066,15.4054161 L113.190584,15.4054161 L113.190584,24.5400876 L116.611387,24.5400876 L116.611387,28.2616204 L104.544599,28.2616204 L104.544599,24.5400876 L107.965401,24.5400876 L107.965401,15.4054161 L104.920511,15.4054161 L104.920511,11.6838832 L107.965401,11.6838832 L107.965401,4.76709489 L104.544599,4.76709489 L104.544599,1.04556204 Z M144.090584,28.1488467 L139.203723,28.1488467 L141.985474,21.0065109 L146.909927,21.0065109 L144.090584,28.1488467 Z M169.314307,21.0065109 L172.096058,28.1488467 L167.171606,28.1488467 L164.389854,21.0065109 L169.314307,21.0065109 Z M139.090949,2.84994161 L172.096058,1.04556204 L172.096058,5.29337226 L157.999343,6.08278832 L152.924526,9.39081752 L162.472701,9.39081752 L152.924526,15.5933723 L164.013942,15.5933723 L161.984015,12.6612555 L167.397153,12.6612555 L172.096058,19.4276788 L159.615766,19.4276788 L159.615766,24.0514015 C159.615766,24.6278034 159.502994,25.1666058 159.277445,25.6678248 C159.051897,26.1690439 158.75117,26.607604 158.375255,26.9835182 C157.999341,27.3594325 157.560781,27.6538943 157.059562,27.8669124 C156.558343,28.0799305 156.032071,28.186438 155.48073,28.186438 L147.924891,28.186438 L149.992409,24.3521314 L152.473431,24.3521314 C152.799223,24.3521314 153.074889,24.2393588 153.300438,24.0138102 C153.525987,23.7882616 153.638759,23.500065 153.638759,23.1492117 L153.638759,19.4276788 L139.090949,19.4276788 L148.639124,13.2251241 L139.090949,13.2251241 L149.315766,6.53388321 L139.090949,7.09775182 L139.090949,2.84994161 Z M206.68,7.47366423 L193.485474,7.47366423 L191.455547,12.3981168 L200.740584,12.3981168 L199.838394,9.72913869 L204.198978,9.72913869 L206.567226,16.5331533 L202.169051,16.5331533 L201.981095,16.0068759 L201.379635,16.0068759 L201.379635,23.2619854 C201.379635,23.6128387 201.492408,23.9010354 201.717956,24.1265839 C201.943505,24.3521325 202.231701,24.4649051 202.582555,24.4649051 L206.266496,24.4649051 L204.612482,28.186438 L200.02635,28.186438 C199.074034,28.186438 198.272096,27.8543853 197.620511,27.1902701 C196.968926,26.5261548 196.643139,25.7179512 196.643139,24.765635 L196.643139,16.0068759 L193.147153,16.0068759 L190.816496,28.186438 L185.854453,28.186438 L188.185109,16.0068759 L184.350803,16.0068759 L187.997153,7.47366423 L185.591314,7.47366423 L185.591314,3.75213139 L193.786204,3.75213139 L192.545693,1.0079708 L198.485109,1.0079708 L199.688029,3.75213139 L206.68,3.75213139 L206.68,7.47366423 Z M173.674891,22.9612555 L178.110657,13.6386277 L173.674891,13.6386277 L179.238394,1.57183942 L185.065036,1.57183942 L180.742044,10.2554161 L184.501168,10.2554161 L180.290949,19.5404526 L184.501168,19.5404526 L184.501168,22.9612555 L173.674891,22.9612555 Z M173.674891,24.765635 L184.501168,24.765635 L184.501168,28.186438 L173.674891,28.186438 L173.674891,24.765635 Z" id="资产管理系统"></path>
                            </g>
                        </g>
                    </g>
                    <rect id="矩形" stroke="#00B9F8" stroke-width="2" fill="url(#radialGradient-1)" x="4" y="4" width="56" height="56"></rect>
                    <path d="M59.4142136,1 L63,4.58578644 L63,1 L59.4142136,1 Z M63,59.4142136 L59.4142136,63 L63,63 L63,59.4142136 Z M5.3385506,63 L1,59.2037682 L1,63 L5.3385506,63 Z M1,4.79623177 L5.3385506,1 L1,1 L1,4.79623177 Z" id="形状" stroke="#00B9F8" stroke-width="2"></path>
                    <path d="M23.1738386,13 L18.0625,15.05186 L22.4151523,17.7727902 L24.7311839,18.4418605 L38.4283081,18.4418605 L40.0653994,17.9958136 L44.9375,15.3639588 L39.8657346,13 L23.1738386,13 Z M40.4583333,20.0850243 L43.1962075,25.6976744 L52.1041667,21.1425361 L46.7102252,16.627907 L40.4583333,20.0850243 Z M10,21.9661272 L20.6366889,26.6046512 L22.5416667,21.2207463 L15.715132,17.5348837 L10,21.9661272 Z M23.4375,26.4827002 L41.3541667,26.6046512 L38.9109848,21.2847417 L25.1070483,21.1627907 L23.4375,26.4827002 Z M43.2120946,29.1634859 L32.3958333,52 L53,23.8837209 L43.2120946,29.1634859 Z M31.5,52 L20.3623486,29.5429749 L10,24.7906977 L31.5,52 Z M22.5416667,29.4097467 L31.8422688,52 L40.4583333,29.3255814 L22.5416667,29.4097467 Z" id="Fill-1" fill="#FFFFFF"></path>
                </g>
            </g>
        </g>
    </g>
</svg>