<?xml version="1.0" encoding="UTF-8"?>
<svg width="154px" height="154px" viewBox="0 0 154 154" version="1.1" xmlns="http://www.w3.org/2000/svg" xmlns:xlink="http://www.w3.org/1999/xlink">
    <!-- Generator: Sketch 52.2 (67145) - http://www.bohemiancoding.com/sketch -->
    <title>椭圆形复制 2</title>
    <desc>Created with Sketch.</desc>
    <g id="椭圆形复制-2" stroke="none" stroke-width="1" fill="none" fill-rule="evenodd">
        <circle stroke="#00B9F8" stroke-width="2" fill-opacity="0.2" fill="#00B9F8" cx="77" cy="77" r="76"></circle>
        <path d="M104.682023,99.7860104 C101.216332,88.1626207 90.8219728,79.8858137 78.6002022,79.0176123 L78.6002022,66.4610388 L87.0001444,66.4610388 C88.1599344,66.4610388 89.10013,65.531206 89.10013,64.384199 L89.10013,56.0768398 C89.10013,54.9298329 88.1599344,54 87.0001444,54 L66.0002888,54 C64.8404988,54 63.9003032,54.9298329 63.9003032,56.0768398 L63.9003032,64.384199 C63.9003032,65.531206 64.8404988,66.4610388 66.0002888,66.4610388 L74.400231,66.4610388 L74.400231,79.0176123 C62.1771118,79.8847328 51.7809699,88.1616263 48.3142104,99.7860104 C46.1593982,100.246021 44.730895,102.275345 45.0426437,104.433581 C45.3543924,106.591816 47.3002891,108.144406 49.4991484,107.989333 C51.6980076,107.834259 53.4014469,106.024301 53.4003754,103.844155 C53.4003754,102.774583 52.9803783,101.808852 52.3083829,101.073651 C55.2127393,91.1575936 63.998247,84.0389919 74.400231,83.1733688 L74.400231,100.267837 C73.1507396,100.986424 72.3002455,102.311448 72.3002455,103.846232 C72.3002455,106.140246 74.1806366,107.999912 76.5002166,107.999912 C78.8197966,107.999912 80.7001877,106.140246 80.7001877,103.846232 C80.7001877,102.313524 79.8496936,100.988501 78.6002022,100.267837 L78.6002022,83.1733688 C89.0029974,84.039274 97.7883706,91.1600954 100.68995,101.077805 C99.9909953,101.833518 99.602345,102.819985 99.6000578,103.844155 C99.6000578,106.138169 101.480449,107.997835 103.800029,107.997835 C106.119609,107.997835 108,106.138169 108,103.844155 C107.998612,101.887381 106.616486,100.196933 104.682023,99.7860104 Z" id="路径" fill="#BCDBFF" fill-rule="nonzero" opacity="0.623139881"></path>
        <path d="M62.3,75 L67.3841,75 C68.543898,75 69.4841,74.0725898 69.4841,72.9285714 C69.4841,71.784553 68.543898,70.8571429 67.3841,70.8571429 L62.3,70.8571429 C61.140202,70.8571429 60.2,69.9297327 60.2,68.7857143 L60.2,52.2142857 C60.2,51.0702673 61.140202,50.1428571 62.3,50.1428571 L91.7,50.1428571 C92.859798,50.1428571 93.8,51.0702673 93.8,52.2142857 L93.8,68.7857143 C93.8,69.9297327 92.859798,70.8571429 91.7,70.8571429 L85.7528,70.8571429 C84.593002,70.8571429 83.6528,71.784553 83.6528,72.9285714 C83.6528,74.0725898 84.593002,75 85.7528,75 L91.7,75 C95.1793939,75 98,72.2177695 98,68.7857143 L98,52.2142857 C98,48.7822305 95.1793939,46 91.7,46 L62.3,46 C58.8206061,46 56,48.7822305 56,52.2142857 L56,68.7857143 C56,72.2177695 58.8206061,75 62.3,75 Z" id="路径" fill="#BCDBFF" fill-rule="nonzero" opacity="0.623139881"></path>
        <circle stroke="#FFFFFF" stroke-width="10" opacity="0.100000001" cx="77.5" cy="76.5" r="76.5"></circle>
    </g>
</svg>