<?xml version="1.0" encoding="UTF-8"?>
<svg width="156px" height="156px" viewBox="0 0 156 156" version="1.1" xmlns="http://www.w3.org/2000/svg" xmlns:xlink="http://www.w3.org/1999/xlink">
    <!-- Generator: Sketch 52.2 (67145) - http://www.bohemiancoding.com/sketch -->
    <title>椭圆形</title>
    <desc>Created with Sketch.</desc>
    <g id="椭圆形" stroke="none" stroke-width="1" fill="none" fill-rule="evenodd">
        <circle stroke="#00B9F8" stroke-width="2" fill-opacity="0.2" fill="#00B9F8" cx="78" cy="78" r="77"></circle>
        <circle stroke="#FFFFFF" stroke-width="10" opacity="0.100000001" cx="77" cy="77" r="76"></circle>
        <path d="M83.7368421,63 L52.2631579,63 C48.2587368,63 45,66.2587368 45,70.2631579 L45,101.736842 C45,105.741263 48.2587368,109 52.2631579,109 L83.7368421,109 C87.7412632,109 91,105.741263 91,101.736842 L91,70.2631579 C91,66.2587368 87.7412632,63 83.7368421,63 Z M86.1578947,101.736842 C86.1578947,103.073953 85.0739526,104.157895 83.7368421,104.157895 L52.2631579,104.157895 C50.9291579,104.157895 49.8421053,103.073263 49.8421053,101.736842 L49.8421053,70.2631579 C49.8421053,68.9291579 50.9291579,67.8421053 52.2631579,67.8421053 L83.7368421,67.8421053 C85.0732632,67.8421053 86.1578947,68.9291579 86.1578947,70.2631579 L86.1578947,101.736842 Z" id="形状" fill="#BCDBFF" fill-rule="nonzero" opacity="0.623139881"></path>
        <path d="M93.7368421,55 L62.2631579,55 C60.9260474,55 59.8421053,56.0839422 59.8421053,57.4210526 C59.8421053,58.7581631 60.9260474,59.8421053 62.2631579,59.8421053 L93.7368421,59.8421053 C95.0732632,59.8421053 96.1578947,60.9291579 96.1578947,62.2631579 L96.1578947,93.7368421 C96.1578947,95.0739526 97.2418369,96.1578947 98.5789474,96.1578947 C99.9160578,96.1578947 101,95.0739526 101,93.7368421 L101,62.2631579 C101,58.2587368 97.7412632,55 93.7368421,55 Z M79.2105263,96.1578947 L57.4210526,96.1578947 C56.0839422,96.1578947 55,97.2418369 55,98.5789474 C55,99.9160578 56.0839422,101 57.4210526,101 L79.2105263,101 C80.5476368,101 81.6315789,99.9160578 81.6315789,98.5789474 C81.6315789,97.2418369 80.5476368,96.1578947 79.2105263,96.1578947 Z" id="形状" fill="#BCDBFF" fill-rule="nonzero" opacity="0.623139881"></path>
        <path d="M101.941176,45 L71.3529412,45 C70.0534476,45 69,46.0534476 69,47.3529412 C69,48.6524347 70.0534476,49.7058824 71.3529412,49.7058824 L101.941176,49.7058824 C103.24,49.7058824 104.294118,50.7623529 104.294118,52.0588235 L104.294118,82.6470588 C104.294118,83.9465524 105.347565,85 106.647059,85 C107.946552,85 109,83.9465524 109,82.6470588 L109,52.0588235 C109,48.1670588 105.832941,45 101.941176,45 Z" id="路径" fill="#BCDBFF" fill-rule="nonzero" opacity="0.623139881"></path>
    </g>
</svg>