<?xml version="1.0" encoding="UTF-8"?>
<svg width="154px" height="154px" viewBox="0 0 154 154" version="1.1" xmlns="http://www.w3.org/2000/svg" xmlns:xlink="http://www.w3.org/1999/xlink">
    <!-- Generator: Sketch 52.2 (67145) - http://www.bohemiancoding.com/sketch -->
    <title>椭圆形复制 3</title>
    <desc>Created with Sketch.</desc>
    <g id="椭圆形复制-3" stroke="none" stroke-width="1" fill="none" fill-rule="evenodd">
        <circle stroke="#00B9F8" stroke-width="2" fill-opacity="0.2" fill="#00B9F8" cx="77" cy="77" r="76"></circle>
        <path d="M106.714286,81.5714286 L83.8571429,81.5714286 C82.5947777,81.5714286 81.5714286,82.5947777 81.5714286,83.8571429 L81.5714286,93 L61,93 L61,72.4285714 L70.1428571,72.4285714 C71.4052223,72.4285714 72.4285714,71.4052223 72.4285714,70.1428571 L72.4285714,47.2857143 C72.4285714,46.0233491 71.4052223,45 70.1428571,45 L47.2857143,45 C46.0233491,45 45,46.0233491 45,47.2857143 L45,70.1428571 C45,71.4052223 46.0233491,72.4285714 47.2857143,72.4285714 L56.4285714,72.4285714 L56.4285714,95.2857143 C56.4285714,96.5480794 57.4519206,97.5714286 58.7142857,97.5714286 L81.5714286,97.5714286 L81.5714286,106.714286 C81.5714286,107.976651 82.5947777,109 83.8571429,109 L106.714286,109 C107.976651,109 109,107.976651 109,106.714286 L109,83.8571429 C109,82.5947777 107.976651,81.5714286 106.714286,81.5714286 Z M49.5714286,67.8571429 L49.5714286,49.5714286 L67.8571429,49.5714286 L67.8571429,67.8571429 L49.5714286,67.8571429 Z M104.428571,104.428571 L86.1428571,104.428571 L86.1428571,86.1428571 L104.428571,86.1428571 L104.428571,104.428571 Z" id="形状" fill="#BCDBFF" fill-rule="nonzero" opacity="0.623139881"></path>
        <circle stroke="#FFFFFF" stroke-width="10" opacity="0.100000001" cx="77" cy="77" r="76"></circle>
    </g>
</svg>