<?xml version="1.0" encoding="UTF-8"?>
<svg width="154px" height="154px" viewBox="0 0 154 154" version="1.1" xmlns="http://www.w3.org/2000/svg" xmlns:xlink="http://www.w3.org/1999/xlink">
    <!-- Generator: Sketch 52.2 (67145) - http://www.bohemiancoding.com/sketch -->
    <title>椭圆形复制</title>
    <desc>Created with Sketch.</desc>
    <g id="椭圆形复制" stroke="none" stroke-width="1" fill="none" fill-rule="evenodd">
        <circle stroke="#00B9F8" stroke-width="2" fill-opacity="0.2" fill="#00B9F8" cx="77" cy="77" r="76"></circle>
        <path d="M63.6199257,49.9223779 L51.9341945,49.9223779 L52.0747488,94.5388111 C52.0747488,95.8980882 50.9707437,97 49.6088845,97 C48.2470252,97 47.1430201,95.8980882 47.1430201,94.5388111 L47,49.9223779 C47,47.2038236 49.2080101,45 51.9317287,45 L65.6419344,45 L73.138162,52.3835668 L111.534136,52.3835668 C112.895995,52.3835668 114,53.4854787 114,54.8447558 C114,56.2040329 112.895995,57.3059447 111.534136,57.3059447 L71.1186191,57.3059447 L63.6223915,49.9223779 L63.6199257,49.9223779 Z" id="路径" fill="#BCDBFF" fill-rule="nonzero" opacity="0.623139881"></path>
        <path d="M46.8430186,94.1282105 C46.5856831,95.4466456 45.3351944,96.315989 44.0267052,96.0861197 C42.718216,95.8562505 41.8304549,94.6112695 42.0273161,93.2822105 L46.2001101,68.9980526 C46.8723528,65.0871579 50.4535732,62 54.347692,62 L105.443029,62 C109.672047,62 112.617692,65.6115789 111.889225,69.8440526 L106.364612,102.001947 C105.687481,105.912842 102.108705,109 98.2145859,109 L49.3242054,109 C47.9741349,109 46.8796864,107.892494 46.8796864,106.526316 C46.8796864,105.160138 47.9741349,104.052632 49.3242054,104.052632 L98.2145859,104.052632 C99.7204096,104.052632 101.277568,102.709421 101.546465,101.155947 L107.071078,68.9980526 C107.283751,67.7686316 106.613953,66.9473684 105.443029,66.9473684 L54.347692,66.9473684 C52.8443128,66.9473684 51.2847097,68.2905789 51.0182571,69.8440526 L46.8430186,94.1282105 Z" id="路径" fill="#BCDBFF" fill-rule="nonzero" opacity="0.623139881"></path>
        <circle stroke="#FFFFFF" stroke-width="10" opacity="0.100000001" cx="77" cy="77" r="76"></circle>
    </g>
</svg>