<?xml version="1.0" encoding="UTF-8"?>
<svg width="613px" height="556px" viewBox="0 0 613 556" version="1.1" xmlns="http://www.w3.org/2000/svg" xmlns:xlink="http://www.w3.org/1999/xlink">
    <!-- Generator: Sketch 52.2 (67145) - http://www.bohemiancoding.com/sketch -->
    <title>Group 23 Copy 2</title>
    <desc>Created with Sketch.</desc>
    <g id="Group-23-Copy-2" stroke="none" stroke-width="1" fill="none" fill-rule="evenodd">
        <g id="分组" transform="translate(112.467189, 152.345200)" fill="#008FC0" fill-rule="nonzero">
            <path d="M297.369849,12.2069254 L307.535613,0.0188830052 C338.351236,25.9958693 358.083275,47.9667993 366.731729,65.9316728 C375.380184,83.8965464 382.015563,104.991987 386.637867,129.217994 L370.027119,133.627763 L368.884055,127.257761 L372.98528,119.52993 C370.693502,104.553691 367.587211,93.6041667 363.666406,86.6813558 C360.091305,82.010908 355.516023,82.9616907 353.567124,78.6426455 C352.267858,75.7632819 348.687106,69.3237251 342.824869,59.3239751 C343.37221,56.0897817 343.37221,53.4565814 342.824869,51.4243741 C342.003858,48.3760632 330.940156,30.2525242 311.720584,17.8977927 C309.81024,17.2732532 307.024426,17.2732532 303.363142,17.8977927 L297.369849,12.2069254 Z" id="Path-3"></path>
            <path d="M155.197981,276.289921 L165.363745,264.101878 C196.179368,290.078865 215.911407,312.049795 224.559862,330.014668 C233.208316,347.979542 239.843696,369.074982 244.465999,393.30099 L227.855251,397.710759 L226.712188,391.340756 L230.813413,383.612925 C228.521635,368.636687 225.415343,357.687162 221.494538,350.764351 C217.919437,346.093903 213.344156,347.044686 211.395257,342.725641 C210.095991,339.846277 206.515239,333.406721 200.653002,323.406971 C201.200343,320.172777 201.200343,317.539577 200.653002,315.50737 C199.83199,312.459059 188.768289,294.33552 169.548716,281.980788 C167.638373,281.356249 164.852559,281.356249 161.191274,281.980788 L155.197981,276.289921 Z" id="Path-3" transform="translate(199.831990, 330.906319) rotate(-240.000000) translate(-199.831990, -330.906319) "></path>
            <path d="M0.0640907323,12.2069254 L10.2298548,0.0188830052 C41.045478,25.9958693 60.777517,47.9667993 69.4259716,65.9316728 C78.0744262,83.8965464 84.7098053,104.991987 89.332109,129.217994 L72.7213609,133.627763 L71.5782973,127.257761 L75.6795223,119.52993 C73.3877444,104.553691 70.2814529,93.6041667 66.360648,86.6813558 C62.7855471,82.010908 58.2102656,82.9616907 56.2613664,78.6426455 C54.9621003,75.7632819 51.3813487,69.3237251 45.5191116,59.3239751 C46.0664527,56.0897817 46.0664527,53.4565814 45.5191116,51.4243741 C44.6980999,48.3760632 33.6343986,30.2525242 14.4148258,17.8977927 C12.5044824,17.2732532 9.71866858,17.2732532 6.05738418,17.8977927 L0.0640907323,12.2069254 Z" id="Path-3" transform="translate(44.698100, 66.823323) scale(-1, 1) translate(-44.698100, -66.823323) "></path>
        </g>
    </g>
</svg>