<?xml version="1.0" encoding="UTF-8"?>
<svg width="526px" height="431px" viewBox="0 0 526 431" version="1.1" xmlns="http://www.w3.org/2000/svg" xmlns:xlink="http://www.w3.org/1999/xlink">
    <!-- Generator: Sketch 52.2 (67145) - http://www.bohemiancoding.com/sketch -->
    <title>Group 17</title>
    <desc>Created with Sketch.</desc>
    <g id="Page-1" stroke="none" stroke-width="1" fill="none" fill-rule="evenodd">
        <g id="部门情况" transform="translate(-104.000000, -265.000000)" fill-rule="nonzero">
            <g id="数据质量概况" transform="translate(60.000000, 190.000000)">
                <g id="雷达图" transform="translate(11.000000, 0.000000)">
                    <g id="Group-17" transform="translate(35.000000, 77.000000)">
                        <g id="Group-19">
                            <g id="Group-18" transform="translate(447.000000, 0.000000)">
                                <polyline id="Path-7" stroke="#00B9F8" stroke-width="3" opacity="0.600000024" points="8 43.2158373 61.3064665 0 74.3956334 14.1480388 22.1802579 58.04761"></polyline>
                                <path d="M56.6886681,16.2690466 L0.825403671,61.4183387" id="Path-8" stroke="#DCFB50" stroke-width="4" stroke-linecap="round"></path>
                            </g>
                            <g id="Group-18-Copy" transform="translate(37.500000, 31.000000) scale(-1, 1) translate(-37.500000, -31.000000) ">
                                <polyline id="Path-7" stroke="#00B9F8" stroke-width="3" opacity="0.600000024" points="8 43.2158373 61.3064665 0 74.3956334 14.1480388 22.1802579 58.04761"></polyline>
                                <path d="M56.6886681,16.2690466 L0.825403671,61.4183387" id="Path-8" stroke="#DCFB50" stroke-width="4" stroke-linecap="round"></path>
                            </g>
                        </g>
                        <g id="Group-19-Copy" transform="translate(261.000000, 396.000000) scale(1, -1) translate(-261.000000, -396.000000) translate(0.000000, 365.000000)">
                            <g id="Group-18" transform="translate(447.000000, 0.000000)">
                                <polyline id="Path-7" stroke="#00B9F8" stroke-width="3" opacity="0.600000024" points="8 43.2158373 61.3064665 0 74.3956334 14.1480388 22.1802579 58.04761"></polyline>
                                <path d="M56.6886681,16.2690466 L0.825403671,61.4183387" id="Path-8" stroke="#DCFB50" stroke-width="4" stroke-linecap="round"></path>
                            </g>
                            <g id="Group-18-Copy" transform="translate(37.500000, 31.000000) scale(-1, 1) translate(-37.500000, -31.000000) ">
                                <polyline id="Path-7" stroke="#00B9F8" stroke-width="3" opacity="0.600000024" points="8 43.2158373 61.3064665 0 74.3956334 14.1480388 22.1802579 58.04761"></polyline>
                                <path d="M56.6886681,16.2690466 L0.825403671,61.4183387" id="Path-8" stroke="#DCFB50" stroke-width="4" stroke-linecap="round"></path>
                            </g>
                        </g>
                    </g>
                </g>
            </g>
        </g>
    </g>
</svg>